<?xml version="1.0" encoding="UTF-8"?>
<svg id="Layer_1" data-name="Layer 1" xmlns="http://www.w3.org/2000/svg" viewBox="0 0 1254 1254">
  <path d="M1071.42,182.58v888.85h-209.54s-1.58-1.58-1.58-1.58v-176.29l70.73-66.51v-154.65h-60.17v82.34h-203.74v-82.34h-80.23v82.34h-202.16l-1.58-1.58v-80.76h-52.78v155.71l63.34,64.39v177.35l-1.58,1.58h-209.54V182.58h888.85ZM844.46,317.7h-406.95l-107.15,107.15v211.66h52.78v-61.23h203.74v61.23h80.23v-61.23h203.74v61.23h60.17v-95.54l-86.56-82.34v-140.93ZM558.38,603.78h-146.73v122.51h146.73v-122.51ZM842.35,603.78h-146.73v122.45h146.73v-122.45Z"/>
  <rect x="546.77" y="833.91" width="160.46" height="28.5"/>
  <rect x="743.12" y="648.11" width="51.73" height="36.95"/>
  <rect x="459.15" y="648.11" width="51.73" height="37.7"/>
</svg>